<?xml version="1.0" encoding="utf-8"?>
<!-- Generated by IcoMoon.io -->
<!DOCTYPE svg PUBLIC "-//W3C//DTD SVG 1.1//EN" "http://www.w3.org/Graphics/SVG/1.1/DTD/svg11.dtd">
<svg version="1.1" xmlns="http://www.w3.org/2000/svg" xmlns:xlink="http://www.w3.org/1999/xlink" width="60" height="60" viewBox="0 0 60 60">
<g id="icomoon-ignore">
	<line stroke-width="1" x1="" y1="" x2="" y2="" stroke="#449FDB" opacity=""></line>
</g>
	<path d="M54 52h-48c-3.308 0-6-2.692-6-6v-32c0-3.308 2.692-6 6-6h48c3.308 0 6 2.692 6 6v32c0 3.308-2.692 6-6 6zM6 10c-2.206 0-4 1.794-4 4v32c0 2.208 1.794 4 4 4h48c2.208 0 4-1.792 4-4v-32c0-2.206-1.792-4-4-4h-48z" fill="#000000"></path>
	<path d="M30.478 37.076c-2.462 0-4.768-1.034-6.49-2.904l-21.388-23.386c-0.372-0.408-0.344-1.040 0.064-1.414 0.406-0.372 1.040-0.344 1.414 0.064l21.386 23.384c2.674 2.91 7.356 2.91 10.034-0.002l21.28-23.28c0.376-0.408 0.632 0.17 1.042 0.542 0.408 0.374 0.804 0.398 0.436 0.808l-21.284 23.282c-1.724 1.872-4.030 2.906-6.494 2.906z" fill="#000000"></path>
	<path d="M3.272 50.458c-0.27 0-0.542-0.11-0.738-0.324-0.372-0.41-0.344-1.042 0.064-1.414l19.58-17.876c0.408-0.372 1.042-0.344 1.414 0.064 0.376 0.408 0.344 1.042-0.064 1.412l-19.58 17.876c-0.194 0.176-0.436 0.262-0.676 0.262z" fill="#000000"></path>
	<path d="M57.582 50.354c-0.242 0-0.482-0.086-0.674-0.262l-19.478-17.78c-0.406-0.374-0.438-1.004-0.062-1.412 0.376-0.41 1.004-0.436 1.41-0.064l19.478 17.778c0.408 0.376 0.44 1.004 0.064 1.414-0.194 0.218-0.468 0.326-0.738 0.326z" fill="#000000"></path>
</svg>
