<?xml version="1.0" encoding="utf-8"?>
<!-- Generated by IcoMoon.io -->
<!DOCTYPE svg PUBLIC "-//W3C//DTD SVG 1.1//EN" "http://www.w3.org/Graphics/SVG/1.1/DTD/svg11.dtd">
<svg version="1.1" xmlns="http://www.w3.org/2000/svg" xmlns:xlink="http://www.w3.org/1999/xlink" width="60" height="60" viewBox="0 0 60 60">
<g id="icomoon-ignore">
	<line stroke-width="1" x1="" y1="" x2="" y2="" stroke="#449FDB" opacity=""></line>
</g>
	<path d="M10.002 53.5c-0.404 0-0.768-0.244-0.924-0.618-0.156-0.376-0.070-0.804 0.216-1.090 1.424-1.426 4.024-4.976 5.708-8.754-8.354-3.582-13.5-9.948-13.5-16.79-0.002-10.888 12.784-19.748 28.498-19.748s28.5 8.86 28.5 19.75c0 10.89-12.786 19.75-28.5 19.75-0.962 0-1.968-0.042-3.132-0.136-4.674 5.070-10.344 7.636-16.866 7.636zM30.002 8.5c-14.612 0-26.5 7.962-26.5 17.75 0 6.256 5.050 12.126 13.178 15.316 0.248 0.096 0.448 0.29 0.552 0.536 0.104 0.242 0.11 0.52 0.010 0.766-1.242 3.1-3.22 6.294-4.95 8.51 5.126-0.548 9.632-2.968 13.418-7.216 0.21-0.236 0.518-0.358 0.834-0.33 1.32 0.118 2.416 0.168 3.456 0.168 14.612 0 26.5-7.96 26.5-17.75 0-9.788-11.886-17.75-26.498-17.75z" fill="#000000"></path>
	<path d="M28.524 33.324c-0.552 0-1-0.45-1-1v-3.73c0-0.552 0.448-1 1-1 4.68 0 7.054-2.18 7.054-6.484 0-3.756-2.5-6.482-5.948-6.482-3.66 0-6.87 3.052-6.87 6.534 0 0.552-0.448 1-1 1s-1-0.448-1-1c0-4.626 4.062-8.534 8.87-8.534 4.53 0 7.948 3.646 7.948 8.482 0 5.15-2.852 8.122-8.054 8.454v2.76c0 0.552-0.448 1-1 1z" fill="#000000"></path>
	<path d="M28.524 41.324c-0.552 0-1-0.45-1-1v-2c0-0.55 0.448-1 1-1s1 0.45 1 1v2c0 0.552-0.448 1-1 1z" fill="#000000"></path>
</svg>
