<?xml version="1.0" encoding="utf-8"?>
<!-- Generated by IcoMoon.io -->
<!DOCTYPE svg PUBLIC "-//W3C//DTD SVG 1.1//EN" "http://www.w3.org/Graphics/SVG/1.1/DTD/svg11.dtd">
<svg version="1.1" xmlns="http://www.w3.org/2000/svg" xmlns:xlink="http://www.w3.org/1999/xlink" width="84" height="60" viewBox="0 0 84 60">
<g id="icomoon-ignore">
	<line stroke-width="1" x1="" y1="" x2="" y2="" stroke="#449FDB" opacity=""></line>
</g>
	<path d="M27.108 41.812c-7.374 0-13.368-8.062-13.84-15.116-1.67-0.392-3.268-1.734-3.268-3.384v-5c0-1.426 1.256-2.522 2-3.046v-4.454c0-4.544 4.010-8.394 8.8-8.498 0.922-0.362 5.020-1.878 9.2-1.878 6.448 0 10 3.686 10 10.376v4.098c2 0.442 2 2.258 2 3.402v5c0 1.708-0.746 2.93-1.968 3.346-0.392 7.322-5.788 15.154-12.924 15.154zM30 2.436c-4.238 0-8.572 1.782-8.616 1.798-0.122 0.050-0.252 0.078-0.384 0.078-3.728 0-7 3.038-7 6.5v5c0 0.36-0.196 0.694-0.51 0.872-0.626 0.354-1.49 1.116-1.49 1.628v5c0 0.66 1.254 1.5 2.238 1.5 0.55 0 1 0.448 1 1 0 6.3 5.478 14 11.87 14 6.166 0 10.946-7.528 10.946-14 0-0.552 0.448-1 1-1 0.234 0 0.946 0 0.946-1.5v-5c0-1.458-0.028-1.5-1-1.5-0.552 0-1-0.448-1-1v-5c0-5.636-2.618-8.376-8-8.376z" fill="#000000"></path>
	<path d="M1 59.562c-0.552 0-1-0.45-1-1v-2.75c0-6.834 5.388-11.25 13.728-11.25h3.188l3.292-5.416c0.288-0.47 0.904-0.626 1.374-0.336 0.472 0.288 0.622 0.904 0.334 1.374l-3.584 5.898c-0.182 0.296-0.504 0.48-0.854 0.48h-3.75c-5.67 0-11.728 2.43-11.728 9.25v2.75c0 0.552-0.448 1-1 1z" fill="#000000"></path>
	<path d="M53 59.562c-0.55 0-1-0.45-1-1v-2.75c0-8.046-6.622-9.25-10.568-9.25h-3.75c-0.326 0-0.628-0.158-0.818-0.426l-4.42-6.274c-0.318-0.456-0.21-1.078 0.242-1.394 0.454-0.32 1.076-0.21 1.394 0.242l4.124 5.852h3.232c7.87 0 12.57 4.208 12.57 11.25v2.75c-0.006 0.552-0.456 1-1.006 1z" fill="#000000"></path>
	<path d="M69 59.562c-0.55 0-1-0.45-1-1v-2.75c0-6.82-5.976-9.25-11.568-9.25h-3.75c-0.342 0-0.662-0.176-0.844-0.464l-4.056-6.398c-0.184-0.29-0.208-0.648-0.062-0.958l0.59-1.27c0.062-0.126 0.148-0.244 0.26-0.336 3.138-2.684 5.17-7.166 5.17-11.422 0-0.552 0.448-1 1-1 1.17 0 1.262-1.072 1.262-1.402v-5c0-1.062 0-1.5-3-1.5-0.55 0-1-0.448-1-1v-5c-0.002-3.256-0.684-5.548-2.030-6.812-1.176-1.108-2.942-1.548-5.542-1.39-0.542 0.040-1.024-0.386-1.058-0.938-0.034-0.55 0.386-1.026 0.942-1.058 3.186-0.198 5.43 0.418 7.036 1.93 1.786 1.68 2.654 4.384 2.654 8.268v4.026c3.334 0.19 4 1.396 4 3.474v5c0 1.612-0.918 2.862-2.288 3.264-0.25 4.474-2.418 9.060-5.68 11.936l-0.272 0.578 3.468 5.472h3.202c8.242 0 13.568 4.414 13.568 11.25v2.75c-0.002 0.552-0.452 1-1.002 1z" fill="#000000"></path>
	<path d="M83 59.562c-0.55 0-1-0.45-1-1v-2.75c0-8.046-6.622-9.25-10.568-9.25h-3.75c-0.342 0-0.662-0.176-0.844-0.464l-4.056-6.398c-0.184-0.29-0.208-0.648-0.062-0.958l0.59-1.27c0.062-0.126 0.148-0.244 0.26-0.336 2.924-2.5 4.67-6.768 4.67-11.422 0-0.552 0.448-1 1-1 0.376 0 0.762 0 0.762-1.402v-5c0-1.458-0.032-1.5-1-1.5-0.55 0-1-0.448-1-1v-5c0-2.982-0.718-5.168-2.132-6.502-1.382-1.304-3.55-1.876-6.436-1.7-0.542 0.040-1.024-0.386-1.056-0.938-0.036-0.55 0.384-1.026 0.938-1.058 3.458-0.212 6.126 0.542 7.93 2.242 1.824 1.724 2.754 4.402 2.754 7.958v4.098c2 0.442 2 2.258 2 3.402v5c0 2.126-0.894 2.954-1.782 3.25-0.204 4.814-2.106 9.22-5.188 11.952l-0.272 0.578 3.466 5.47h3.204c7.872 0 12.568 4.206 12.568 11.25v2.75c0.004 0.55-0.446 0.998-0.996 0.998z" fill="#000000"></path>
	<path d="M22.478 56.812c-0.054 0-0.11-0.004-0.166-0.016-0.318-0.050-0.592-0.254-0.734-0.546l-5-10.25c-0.19-0.386-0.108-0.852 0.202-1.156 0.31-0.3 0.78-0.372 1.162-0.168l10 5.25c0.282 0.148 0.476 0.418 0.524 0.734 0.046 0.316-0.056 0.632-0.284 0.858l-5 5c-0.186 0.19-0.442 0.294-0.704 0.294zM19.714 47.864l3.048 6.25 3.048-3.046-6.096-3.204z" fill="#000000"></path>
	<path d="M32.476 56.812c-0.262 0-0.518-0.106-0.708-0.292l-5-5c-0.226-0.222-0.33-0.542-0.282-0.864 0.048-0.314 0.248-0.588 0.532-0.734l10.208-5.248c0.38-0.198 0.854-0.126 1.162 0.18s0.38 0.776 0.186 1.162l-5.208 10.25c-0.146 0.286-0.418 0.484-0.734 0.536-0.052 0.006-0.104 0.010-0.156 0.010zM29.152 51.074l3.056 3.054 3.182-6.262-6.238 3.208z" fill="#000000"></path>
</svg>
