<?xml version="1.0" encoding="utf-8"?>
<!-- Generated by IcoMoon.io -->
<!DOCTYPE svg PUBLIC "-//W3C//DTD SVG 1.1//EN" "http://www.w3.org/Graphics/SVG/1.1/DTD/svg11.dtd">
<svg version="1.1" xmlns="http://www.w3.org/2000/svg" xmlns:xlink="http://www.w3.org/1999/xlink" width="60" height="60" viewBox="0 0 60 60">
<g id="icomoon-ignore">
	<line stroke-width="1" x1="" y1="" x2="" y2="" stroke="#449FDB" opacity=""></line>
</g>
	<path d="M40 59h-34c-0.552 0-1-0.45-1-1v-28c0-0.552 0.448-1 1-1h34c0.55 0 1 0.448 1 1v28c0 0.55-0.45 1-1 1zM7 57h32v-26h-32v26z" fill="#000000"></path>
	<path d="M38 31h-24c-0.552 0-1-0.448-1-1v-20c0-0.552 0.448-1 1-1h24c0.55 0 1 0.448 1 1v20c0 0.552-0.45 1-1 1zM15 29h22v-18h-22v18z" fill="#000000"></path>
	<path d="M43 29h-2v-22h-22v4h-2v-5c0-0.552 0.448-1 1-1h24c0.55 0 1 0.448 1 1v23z" fill="#000000"></path>
	<path d="M47 25h-2v-22h-22v2h-2v-3c0-0.552 0.448-1 1-1h24c0.55 0 1 0.448 1 1v23z" fill="#000000"></path>
	<path d="M40.726 31c-0.274 0-0.542-0.112-0.742-0.33-0.372-0.41-0.336-1.042 0.070-1.414l13.274-12c0.41-0.37 1.042-0.338 1.414 0.072s0.34 1.042-0.070 1.414l-13.274 12c-0.19 0.172-0.434 0.258-0.672 0.258z" fill="#000000"></path>
	<path d="M40.726 58.002c-0.274 0-0.542-0.112-0.742-0.33-0.372-0.41-0.336-1.042 0.070-1.414l13.274-12c0.41-0.372 1.042-0.338 1.414 0.072s0.34 1.042-0.070 1.414l-13.274 12c-0.19 0.172-0.434 0.258-0.672 0.258z" fill="#000000"></path>
	<path d="M40.526 58.846l-0.944-2.256 13.418-12v-25.59h-8v-2h9c0.55 0 1 0.448 1 1v27c0 0.264-0.106 0.518-0.292 0.708l-14.182 13.138z" fill="#000000"></path>
	<path d="M13.217 21.211l1.444 1.387-8 8.331-1.444-1.387 8-8.331z" fill="#000000"></path>
	<path d="M27 39h-8c-0.552 0-1-0.45-1-1s0.448-1 1-1h8c0.552 0 1 0.45 1 1s-0.45 1-1 1z" fill="#000000"></path>
</svg>
