<?xml version="1.0" encoding="utf-8"?>
<!-- Generated by IcoMoon.io -->
<!DOCTYPE svg PUBLIC "-//W3C//DTD SVG 1.1//EN" "http://www.w3.org/Graphics/SVG/1.1/DTD/svg11.dtd">
<svg version="1.1" xmlns="http://www.w3.org/2000/svg" xmlns:xlink="http://www.w3.org/1999/xlink" width="60" height="60" viewBox="0 0 60 60">
<g id="icomoon-ignore">
	<line stroke-width="1" x1="" y1="" x2="" y2="" stroke="#449FDB" opacity=""></line>
</g>
	<path d="M0 52h60v2h-60v-2z" fill="#000000"></path>
	<path d="M6 0h2v60h-2v-60z" fill="#000000"></path>
	<path d="M12.926 50.75c-0.256 0-0.512-0.098-0.708-0.292-0.39-0.388-0.39-1.024 0-1.414l10-10c0.39-0.388 1.024-0.388 1.414 0l6.224 6.224 7.094-30.742c0.082-0.354 0.35-0.636 0.7-0.736 0.352-0.1 0.724-0.002 0.984 0.254l8.902 8.902 6.954-18.546c0.194-0.516 0.77-0.778 1.288-0.584 0.52 0.194 0.782 0.77 0.586 1.288l-7.5 20c-0.12 0.318-0.39 0.554-0.722 0.626-0.332 0.070-0.678-0.030-0.918-0.27l-8.724-8.724-7.094 30.742c-0.082 0.356-0.352 0.634-0.7 0.736-0.35 0.104-0.726 0.004-0.984-0.254l-6.792-6.792-9.292 9.292c-0.2 0.192-0.456 0.29-0.712 0.29z" fill="#000000"></path>
</svg>
