<?xml version="1.0" encoding="utf-8"?>
<!-- Generated by IcoMoon.io -->
<!DOCTYPE svg PUBLIC "-//W3C//DTD SVG 1.1//EN" "http://www.w3.org/Graphics/SVG/1.1/DTD/svg11.dtd">
<svg version="1.1" xmlns="http://www.w3.org/2000/svg" xmlns:xlink="http://www.w3.org/1999/xlink" width="60" height="60" viewBox="0 0 60 60">
<g id="icomoon-ignore">
	<line stroke-width="1" x1="" y1="" x2="" y2="" stroke="#449FDB" opacity=""></line>
</g>
	<path d="M49.95 39.376h-27.5c-0.416 0-0.786-0.256-0.934-0.642l-10.45-27.358h-6.68v2c0 0.552-0.448 1-1 1-0.55 0-1-0.448-1-1v-3c0-0.552 0.45-1 1-1h8.37c0.416 0 0.786 0.256 0.934 0.644l10.448 27.356h26.118l5.996-16.19-35.396-5.196c-0.546-0.080-0.924-0.588-0.844-1.134s0.582-0.924 1.132-0.844l36.616 5.376c0.296 0.044 0.558 0.22 0.712 0.48 0.154 0.258 0.182 0.574 0.078 0.858l-6.666 18c-0.144 0.392-0.516 0.65-0.934 0.65z" fill="#000000"></path>
	<path d="M28.974 42.516c1.688 0 3.056 1.37 3.056 3.054 0 1.692-1.37 3.054-3.056 3.054s-3.054-1.368-3.054-3.054c0.002-1.686 1.37-3.054 3.054-3.054zM28.974 40.516c-2.788 0-5.054 2.266-5.054 5.054s2.268 5.054 5.054 5.054c2.79 0 5.056-2.27 5.056-5.054 0.002-2.786-2.266-5.054-5.056-5.054v0z" fill="#000000"></path>
	<path d="M43.422 42.516c1.688 0 3.054 1.37 3.054 3.054 0 1.692-1.368 3.054-3.054 3.054-1.69 0-3.056-1.368-3.056-3.054s1.366-3.054 3.056-3.054zM43.422 40.516c-2.79 0-5.056 2.266-5.056 5.054s2.268 5.054 5.056 5.054c2.788 0 5.054-2.27 5.054-5.054-0.002-2.786-2.268-5.054-5.054-5.054v0z" fill="#000000"></path>
	<path d="M48.386 33.376h-24c-0.55 0-1-0.448-1-1s0.45-1 1-1h24c0.552 0 1 0.448 1 1s-0.446 1-1 1z" fill="#000000"></path>
	<path d="M48.386 29.376h-24c-0.55 0-1-0.448-1-1s0.45-1 1-1h24c0.552 0 1 0.448 1 1s-0.446 1-1 1z" fill="#000000"></path>
	<path d="M42.386 25.376h-18c-0.55 0-1-0.448-1-1s0.45-1 1-1h18c0.552 0 1 0.448 1 1s-0.446 1-1 1z" fill="#000000"></path>
</svg>
