<?xml version="1.0" encoding="utf-8"?>
<!-- Generated by IcoMoon.io -->
<!DOCTYPE svg PUBLIC "-//W3C//DTD SVG 1.1//EN" "http://www.w3.org/Graphics/SVG/1.1/DTD/svg11.dtd">
<svg version="1.1" xmlns="http://www.w3.org/2000/svg" xmlns:xlink="http://www.w3.org/1999/xlink" width="60" height="60" viewBox="0 0 60 60">
<g id="icomoon-ignore">
	<line stroke-width="1" x1="" y1="" x2="" y2="" stroke="#449FDB" opacity=""></line>
</g>
	<path d="M25.010 56.116c-0.002 0 0 0 0 0-1.006 0-2.010-0.060-2.984-0.18-0.286-0.038-0.542-0.19-0.704-0.426-0.162-0.238-0.214-0.534-0.144-0.81 0.206-0.816 0.302-1.512 0.302-2.188 0-4.96-4.038-9-9-9-1.806 0-3.55 0.536-5.042 1.546-0.242 0.164-0.542 0.21-0.824 0.134s-0.516-0.272-0.64-0.538c-4.534-9.522-1.494-22.376 7.39-31.26 6.042-6.044 13.916-9.51 21.606-9.51 5.926 0 11.31 2.122 15.164 5.974 4.462 4.466 6.542 10.77 5.842 17.752-0.692 6.908-4.024 13.66-9.378 19.016-6.028 6.032-13.896 9.49-21.588 9.49zM23.352 54.054c7.622 0.556 15.738-2.746 21.832-8.844 5.032-5.030 8.156-11.352 8.8-17.798 0.636-6.374-1.232-12.106-5.266-16.138-3.472-3.474-8.36-5.388-13.75-5.388-7.162 0-14.522 3.252-20.192 8.924-7.982 7.982-10.95 19.318-7.444 27.978 1.58-0.84 3.336-1.28 5.146-1.28 6.066 0 11 4.934 11 11 0.002 0.5-0.040 1.012-0.126 1.546z" fill="#000000"></path>
	<path d="M22.48 41.012c-3.308 0-6-2.692-6-6s2.692-6 6-6 6 2.692 6 6-2.69 6-6 6zM22.48 31.012c-2.206 0-4 1.792-4 4s1.794 4 4 4 4-1.792 4-4-1.794-4-4-4z" fill="#000000"></path>
	<path d="M22.48 21.012c-1.93 0-3.5-1.57-3.5-3.5s1.57-3.5 3.5-3.5 3.5 1.57 3.5 3.5-1.568 3.5-3.5 3.5zM22.48 16.012c-0.828 0-1.5 0.672-1.5 1.5s0.672 1.5 1.5 1.5 1.5-0.672 1.5-1.5-0.674-1.5-1.5-1.5z" fill="#000000"></path>
	<path d="M32.48 16.012c-1.93 0-3.5-1.57-3.5-3.5s1.57-3.5 3.5-3.5 3.5 1.57 3.5 3.5-1.57 3.5-3.5 3.5zM32.48 11.012c-0.828 0-1.5 0.672-1.5 1.5s0.672 1.5 1.5 1.5 1.5-0.672 1.5-1.5-0.674-1.5-1.5-1.5z" fill="#000000"></path>
	<path d="M42.48 18.512c-1.93 0-3.5-1.57-3.5-3.5s1.57-3.5 3.5-3.5 3.5 1.57 3.5 3.5-1.57 3.5-3.5 3.5zM42.48 13.512c-0.828 0-1.5 0.672-1.5 1.5s0.672 1.5 1.5 1.5 1.5-0.672 1.5-1.5-0.674-1.5-1.5-1.5z" fill="#000000"></path>
	<path d="M47.48 28.512c-1.93 0-3.5-1.57-3.5-3.5s1.57-3.5 3.5-3.5 3.5 1.57 3.5 3.5-1.57 3.5-3.5 3.5zM47.48 23.512c-0.828 0-1.5 0.672-1.5 1.5s0.672 1.5 1.5 1.5 1.5-0.672 1.5-1.5-0.674-1.5-1.5-1.5z" fill="#000000"></path>
	<path d="M44.98 38.512c-1.93 0-3.5-1.57-3.5-3.5s1.57-3.5 3.5-3.5 3.5 1.57 3.5 3.5-1.57 3.5-3.5 3.5zM44.98 33.512c-0.828 0-1.5 0.672-1.5 1.5s0.672 1.5 1.5 1.5 1.5-0.672 1.5-1.5-0.674-1.5-1.5-1.5z" fill="#000000"></path>
</svg>
