<?xml version="1.0" encoding="utf-8"?>
<!-- Generated by IcoMoon.io -->
<!DOCTYPE svg PUBLIC "-//W3C//DTD SVG 1.1//EN" "http://www.w3.org/Graphics/SVG/1.1/DTD/svg11.dtd">
<svg version="1.1" xmlns="http://www.w3.org/2000/svg" xmlns:xlink="http://www.w3.org/1999/xlink" width="60" height="60" viewBox="0 0 60 60">
<g id="icomoon-ignore">
	<line stroke-width="1" x1="" y1="" x2="" y2="" stroke="#449FDB" opacity=""></line>
</g>
	<path d="M29.636 47.16c-1.294 0-2.62-0.484-3.44-1.026-1.104-0.724-8.216-6.626-12.244-10l-3.398-2.862c-0.422-0.356-0.476-0.986-0.12-1.41 0.356-0.422 0.988-0.476 1.408-0.118l3.394 2.856c5.212 4.366 11.212 9.304 12.058 9.86 0.636 0.422 1.76 0.792 2.68 0.676 0.864-0.098 1.128-0.566 1.254-0.91 0.114-0.312 0.376-0.546 0.704-0.626 0.324-0.078 0.664 0.008 0.91 0.23 0.816 0.744 2.082 0.804 2.914 0.484 0.45-0.176 1-0.532 1.066-1.246 0.036-0.378 0.284-0.708 0.638-0.844 0.358-0.132 0.758-0.058 1.038 0.204 0.434 0.402 1.386 0.412 2.176 0.016 0.356-0.178 1.168-0.694 1.066-1.652-0.042-0.386 0.148-0.766 0.484-0.964s0.758-0.188 1.078 0.036c0.484 0.336 1.074 0.098 1.434-0.208 0.536-0.458 0.918-1.334 0.398-2.42-1.448-3.010-9.196-10.362-13.882-13.614l-0.16 0.058c-1.364 0.496-1.442 0.516-2.512 0.62-1.242 1.822-3.578 4.844-7.174 3.66-1.082-0.356-1.822-1.172-2.084-2.296-0.612-2.626 1.372-6.288 3.036-7.924 2.756-2.702 7.802-5.040 12.962-2.732 4.892 2.19 7.948 3.096 7.974 3.104 0.532 0.156 0.832 0.712 0.68 1.242-0.156 0.532-0.712 0.834-1.242 0.678-0.128-0.040-3.2-0.946-8.23-3.2-4.242-1.9-8.44 0.072-10.746 2.334-1.436 1.41-2.868 4.42-2.49 6.042 0.106 0.456 0.334 0.708 0.76 0.85 2.248 0.744 3.834-1.298 5.152-3.266 0.166-0.248 0.434-0.408 0.73-0.438l0.46-0.044c0.864-0.082 0.864-0.082 2.036-0.51l0.644-0.234c0.296-0.108 0.628-0.068 0.894 0.108 4.5 3 13.19 10.946 14.992 14.696 0.836 1.736 0.48 3.622-0.902 4.804-0.73 0.626-1.61 0.912-2.458 0.84-0.304 0.924-1.006 1.718-2.010 2.222-1.042 0.52-2.202 0.628-3.168 0.354-0.396 0.706-1.056 1.256-1.922 1.592-1.298 0.504-2.788 0.414-3.992-0.196-0.544 0.632-1.322 1.028-2.274 1.136-0.186 0.026-0.38 0.038-0.572 0.038z" fill="#000000"></path>
	<path d="M25.598 17.554c-0.036 0-0.072-0.002-0.11-0.006-2.612-0.286-8.65-0.46-10.678-0.402-0.55 0.020-1.012-0.416-1.028-0.97-0.016-0.55 0.418-1.010 0.97-1.028 2.070-0.052 8.27 0.122 10.952 0.414 0.548 0.060 0.946 0.554 0.886 1.102-0.054 0.51-0.488 0.89-0.992 0.89z" fill="#000000"></path>
	<path d="M46.378 37.296c-0.3 0-0.598-0.132-0.794-0.396-0.334-0.44-0.248-1.064 0.194-1.4l2.446-1.858c0.442-0.334 1.068-0.248 1.402 0.194 0.334 0.438 0.248 1.066-0.192 1.4l-2.448 1.858c-0.184 0.136-0.396 0.202-0.608 0.202z" fill="#000000"></path>
	<path d="M42.734 41.688c-0.218 0-0.436-0.070-0.622-0.212-1.302-1.030-8.156-7.44-8.45-7.708-0.402-0.376-0.424-1.012-0.046-1.414s1.012-0.426 1.414-0.046c2.446 2.29 7.332 6.82 8.32 7.602 0.434 0.344 0.508 0.972 0.168 1.406-0.196 0.242-0.49 0.372-0.784 0.372z" fill="#000000"></path>
	<path d="M37.816 44.164c-0.218 0-0.442-0.074-0.626-0.218-1.688-1.348-6.444-5.628-7.158-6.41-0.376-0.404-0.348-1.040 0.058-1.414 0.406-0.376 1.042-0.348 1.412 0.062 0.584 0.632 5.274 4.872 6.934 6.198 0.432 0.346 0.502 0.974 0.158 1.404-0.194 0.25-0.484 0.378-0.778 0.378z" fill="#000000"></path>
	<path d="M32.168 45.57c-0.226 0-0.458-0.078-0.644-0.234-1.618-1.368-3.848-3.59-5.342-5.194-0.376-0.404-0.354-1.038 0.048-1.414 0.404-0.374 1.038-0.354 1.414 0.048 1.454 1.558 3.616 3.716 5.17 5.028 0.422 0.358 0.476 0.988 0.122 1.41-0.2 0.236-0.482 0.356-0.768 0.356z" fill="#000000"></path>
	<path d="M4.494 37.546v0c-1.54 0-2.666-0.090-3.446-0.278-0.452-0.11-0.77-0.516-0.766-0.984 0.084-9.062 2.508-22.488 2.532-22.622 0.096-0.536 0.6-0.894 1.138-0.81 0.326 0.048 8.008 1.248 11.16 2.346 0.432 0.152 0.708 0.576 0.666 1.030-0.566 6.474-5 19.814-5.188 20.38-0.126 0.376-0.46 0.64-0.856 0.68-0.11 0.012-2.746 0.258-5.24 0.258zM2.298 35.45c0.5 0.054 1.206 0.098 2.196 0.098 1.678 0 3.47-0.122 4.404-0.192 0.852-2.618 4.092-12.822 4.804-18.502-2.586-0.756-7.112-1.542-9.086-1.868-0.532 3.102-2.136 13.040-2.318 20.464z" fill="#000000"></path>
	<path d="M54.684 36.89c-2.652 0-4.418-0.196-5.398-0.602-0.29-0.118-0.504-0.36-0.586-0.66-0.958-3.478-4.504-13.442-6.036-15.902-0.152-0.246-0.192-0.544-0.11-0.82 0.086-0.276 0.286-0.502 0.546-0.622 0.178-0.080 4.4-1.95 8.922-1.95 0.95 0 1.86 0.084 2.696 0.25 0.25 0.046 0.47 0.192 0.62 0.398 3.034 4.226 4.322 18.092 4.376 18.68 0.024 0.27-0.060 0.536-0.234 0.742-0.176 0.204-0.426 0.328-0.694 0.348-0.076 0.010-1.968 0.138-4.102 0.138zM50.478 34.574c0.63 0.152 1.858 0.316 4.208 0.316 1.124 0 2.192-0.040 2.938-0.078-0.458-4.302-1.736-13.122-3.692-16.336-0.598-0.094-1.238-0.14-1.906-0.14-2.848 0-5.644 0.854-7.090 1.378 1.774 3.556 4.552 11.494 5.542 14.86z" fill="#000000"></path>
</svg>
