<?xml version="1.0" encoding="utf-8"?>
<!-- Generated by IcoMoon.io -->
<!DOCTYPE svg PUBLIC "-//W3C//DTD SVG 1.1//EN" "http://www.w3.org/Graphics/SVG/1.1/DTD/svg11.dtd">
<svg version="1.1" xmlns="http://www.w3.org/2000/svg" xmlns:xlink="http://www.w3.org/1999/xlink" width="60" height="60" viewBox="0 0 60 60">
<g id="icomoon-ignore">
	<line stroke-width="1" x1="" y1="" x2="" y2="" stroke="#449FDB" opacity=""></line>
</g>
	<path d="M40.478 60h-20c-6.646 0-12.478-5.958-12.478-12.75v-18.25c0-0.552 0.448-1 1-1h42c0.55 0 1 0.448 1 1v18.25c0 7.15-5.062 12.75-11.522 12.75zM10 30v17.25c0 5.726 4.896 10.75 10.478 10.75h20c5.96 0 9.522-5.464 9.522-10.75v-17.25h-40z" fill="#000000"></path>
	<path d="M49 29c-0.55 0-1-0.448-1-1v-10.75c0-8.836-6.844-15.25-16.272-15.25h-2.5c-8.468 0-17.228 5.706-17.228 15.25v10.75c0 0.552-0.448 1-1 1s-1-0.448-1-1v-10.75c0-9.674 8.446-17.25 19.228-17.25h2.5c10.588 0 18.272 7.254 18.272 17.25v10.75c0 0.552-0.45 1-1 1z" fill="#000000"></path>
	<path d="M31 52h-2c-1.654 0-3-1.346-3-3v-4.55c-1.278-1.142-2-2.738-2-4.45 0-3.308 2.692-6 6-6s6 2.692 6 6c0 1.71-0.722 3.304-2 4.45v4.55c0 1.654-1.346 3-3 3zM30 36c-2.206 0-4 1.792-4 4 0 1.25 0.584 2.408 1.604 3.18 0.25 0.192 0.396 0.484 0.396 0.796v5.024c0 0.55 0.448 1 1 1h2c0.55 0 1-0.45 1-1v-5.024c0-0.312 0.146-0.61 0.396-0.796 1.020-0.774 1.604-1.93 1.604-3.18 0-2.208-1.792-4-4-4z" fill="#000000"></path>
</svg>
