<?xml version="1.0" encoding="utf-8"?>
<!-- Generated by IcoMoon.io -->
<!DOCTYPE svg PUBLIC "-//W3C//DTD SVG 1.1//EN" "http://www.w3.org/Graphics/SVG/1.1/DTD/svg11.dtd">
<svg version="1.1" xmlns="http://www.w3.org/2000/svg" xmlns:xlink="http://www.w3.org/1999/xlink" width="60" height="60" viewBox="0 0 60 60">
<g id="icomoon-ignore">
	<line stroke-width="1" x1="" y1="" x2="" y2="" stroke="#449FDB" opacity=""></line>
</g>
	<path d="M29.356 41.812c-7.246 0-13.136-8.072-13.592-15.13-1.554-0.422-2.764-1.816-2.764-3.37v-5c0-1.426 1.256-2.522 2-3.046v-4.454c0-4.772 3.334-8.388 7.79-8.498 0.908-0.376 4.77-1.878 8.71-1.878 6.126 0 9.5 3.686 9.5 10.376v4.026c3.332 0.19 4 1.396 4 3.474v5c0 1.634-0.958 2.94-2.348 3.358-0.422 7.19-6.082 15.142-13.296 15.142zM31.5 2.436c-3.996 0-8.056 1.774-8.096 1.79-0.126 0.058-0.264 0.086-0.404 0.086-3.476 0-6 2.734-6 6.5v5c0 0.36-0.196 0.694-0.51 0.872-0.626 0.354-1.49 1.116-1.49 1.628v5c0 0.77 0.844 1.5 1.738 1.5 0.552 0 1 0.448 1 1 0 6.34 5.184 14 11.62 14 6.272 0 11.322-7.66 11.322-14 0-0.552 0.448-1 1-1 0.906 0 1.32-0.778 1.32-1.5v-5c0-1.062 0-1.5-3-1.5-0.552 0-1-0.448-1-1v-5c0-5.636-2.456-8.376-7.5-8.376z" fill="#000000"></path>
	<path d="M4 59.562c-0.552 0-1-0.45-1-1v-2.75c0-7.042 4.758-11.25 12.728-11.25h3.226l3.786-5.464c0.314-0.454 0.936-0.566 1.392-0.25 0.454 0.312 0.568 0.938 0.252 1.39l-4.084 5.894c-0.188 0.27-0.494 0.43-0.822 0.43h-3.75c-6.818 0-10.728 3.372-10.728 9.25v2.75c0 0.552-0.45 1-1 1z" fill="#000000"></path>
	<path d="M56 59.562c-0.552 0-1-0.45-1-1v-2.75c0-6.82-5.976-9.25-11.57-9.25h-3.75c-0.344 0-0.664-0.178-0.848-0.468l-3.918-6.278c-0.292-0.468-0.152-1.084 0.316-1.376 0.468-0.294 1.086-0.152 1.378 0.316l3.628 5.804h3.196c8.242 0 13.566 4.416 13.566 11.25v2.75c0.002 0.554-0.448 1.002-0.998 1.002z" fill="#000000"></path>
	<path d="M29.478 51.812c-0.16 0-0.32-0.040-0.464-0.114l-10-5.25c-0.49-0.258-0.678-0.862-0.42-1.352 0.254-0.488 0.858-0.68 1.35-0.418l9.54 5.004 9.744-5.008c0.49-0.254 1.094-0.060 1.348 0.43 0.25 0.492 0.056 1.094-0.434 1.348l-10.206 5.25c-0.144 0.072-0.304 0.11-0.458 0.11z" fill="#000000"></path>
</svg>
