<?xml version="1.0" encoding="utf-8"?>
<!-- Generated by IcoMoon.io -->
<!DOCTYPE svg PUBLIC "-//W3C//DTD SVG 1.1//EN" "http://www.w3.org/Graphics/SVG/1.1/DTD/svg11.dtd">
<svg version="1.1" xmlns="http://www.w3.org/2000/svg" xmlns:xlink="http://www.w3.org/1999/xlink" width="60" height="60" viewBox="0 0 60 60">
<g id="icomoon-ignore">
	<line stroke-width="1" x1="" y1="" x2="" y2="" stroke="#449FDB" opacity=""></line>
</g>
	<path d="M28.75 44.376h-0.376c-4.73 0-8.768-3.984-9.2-8.878-2.144-0.594-3.652-3.102-3.652-5.372v-2.5c0-1.144 0-2.96 2-3.402v-3.346c0-4.194 2.334-7.034 5.828-7.126 0.694-0.24 1.416-0.512 2.156-0.79 2.62-0.988 5.33-2.008 7.746-2.008 4.162 0 6.272 3.086 6.272 9.172v4.454c0.744 0.524 2 1.62 2 3.046v2.5c0 2.23-1.598 4.778-3.796 5.376-0.412 4.964-4.282 8.874-8.978 8.874zM33.25 12.952c-2.050 0-4.586 0.956-7.042 1.88-0.812 0.306-1.608 0.606-2.366 0.864-0.104 0.036-0.212 0.052-0.322 0.052-2.95 0-4 2.648-4 5.128v4.248c0 0.552-0.448 1-1 1-0.972 0-1 0.042-1 1.5v2.5c0 1.586 1.166 3.502 2.614 3.502 0.552 0 1 0.45 1 1 0 4.2 3.314 7.748 7.238 7.748h0.376c3.866 0 7.010-3.474 7.010-7.748 0-0.55 0.448-1 1-1 1.458 0 2.762-1.958 2.762-3.502v-2.5c0-0.512-0.88-1.288-1.488-1.628-0.314-0.176-0.512-0.51-0.512-0.872v-5c0.002-6.358-2.282-7.172-4.27-7.172z" fill="#000000"></path>
	<path d="M50.116 58.376h-42.618c-0.552 0-1-0.45-1-1 0-8.096 5.6-13.75 13.618-13.75 0.552 0 1 0.45 1 1s-0.448 1-1 1c-6.506 0-11.146 4.372-11.584 10.75h40.55c-0.43-6.528-5.072-11-11.584-11-0.552 0-1-0.45-1-1s0.448-1 1-1c7.888 0 13.618 5.886 13.618 14 0 0.55-0.446 1-1 1z" fill="#000000"></path>
	<path d="M1.25 26.122c-0.552 0-1-0.448-1-1 0-3.998 3.252-7.25 7.25-7.25 0.552 0 1 0.448 1 1s-0.448 1-1 1c-2.894 0-5.25 2.354-5.25 5.25 0 0.548-0.448 1-1 1z" fill="#000000"></path>
	<path d="M58.75 26.122c-0.552 0-1-0.448-1-1 0-2.896-2.356-5.25-5.25-5.25-0.552 0-1-0.448-1-1s0.448-1 1-1c3.998 0 7.25 3.252 7.25 7.25 0 0.548-0.45 1-1 1z" fill="#000000"></path>
	<path d="M12.5 18.626c-3.806 0-6-8.348-6-11 0-3.308 2.692-6 6-6s6 2.692 6 6c0 2.65-2.194 11-6 11zM12.5 3.626c-2.208 0-4 1.794-4 4 0 2.826 2.282 9 4 9s4-6.174 4-9c0-2.21-1.794-4-4-4z" fill="#000000"></path>
	<path d="M47.5 18.626c-3.806 0-6-8.348-6-11 0-3.308 2.692-6 6-6s6 2.692 6 6c0 2.65-2.196 11-6 11zM47.5 3.626c-2.208 0-4 1.794-4 4 0 2.826 2.282 9 4 9s4-6.174 4-9c0-2.21-1.794-4-4-4z" fill="#000000"></path>
</svg>
